<?xml version="1.0" encoding="utf-8"?>
<!-- Generator: Adobe Illustrator 27.1.0, SVG Export Plug-In . SVG Version: 6.00 Build 0)  -->
<svg version="1.1" id="Capa_1" xmlns="http://www.w3.org/2000/svg" xmlns:xlink="http://www.w3.org/1999/xlink" x="0px" y="100px"
	 viewBox="0 0 142 179" style="enable-background:new 0 0 142 179;" xml:space="preserve">
<style type="text/css">
	.st0{fill:#FFFFFF;}
</style>
<g>
	<path class="st0" d="M83.5,98.1c1,0.4,1.9,1.1,2.9,1.5c0.9,0.3,1.9-0.3,2.7-0.7c0.1,1.4,0.1,2.9-0.3,4.3c-0.4,1.3-4.3,9.8-5.2,10.3
		c-0.2,0.4-0.5,0.7-0.8,1c-0.6,0.6-1.4,1.5-2.3,1.5c-0.1-1.8,1.1-7.2,0.3-8.3c-0.2-0.3-0.5-0.8-0.3-1.1c0.2-0.6,1.1-1,1.4-1.7
		C82.9,102.9,83.2,100.3,83.5,98.1z"/>
	<path class="st0" d="M84.7,102.4c0.1,0,0.3,0.1,0.4,0.1c0.4,0.1,0.5,0.4,0.7,0.7c-0.1,0.4-0.1,0.5-0.5,0.8
		c-0.1,0.3-0.2,0.4-0.5,0.6l-0.2-0.2C84.5,103.6,84.5,103.1,84.7,102.4z"/>
	<path class="st0" d="M82,106.1c0.3,0,0.6,0.1,0.9,0.1c0.4,0.1,0.9,0.7,1.1,1c0.3,0.5,0.2,1.2,0.1,1.8l-0.3,0.2l-0.3-0.1
		C83,108.2,82.3,107.1,82,106.1z"/>
	<path class="st0" d="M95.6,86.7C95.6,86.7,95.7,86.8,95.6,86.7c0.7,0.4,1.6,2.3,1.8,3c1.5,5.5-1.7,11.8-4.4,16.4
		c-0.7,1.2-2.1,3.6-3.6,4c-0.2,0.4-0.5,0.7-0.9,0.8c-0.2-0.7,3.4-9.2,3.3-12.3c0-0.8-0.3-1.7-0.6-2.5C93.7,93.8,94.5,87.7,95.6,86.7
		z"/>
	<path class="st0" d="M93,100.6c0.4,0,0.6,0.1,0.9,0.3c0.3,0.5,0,1.1-0.1,1.7c-0.3,0-0.5-0.1-0.8-0.2
		C92.7,101.7,92.9,101.2,93,100.6z"/>
	<path class="st0" d="M58,98.3C58,98.3,58.1,98.3,58,98.3c0.6,0.3,0.5,1.5,0.7,2c0.6,2.1,2.3,4,2.8,6.1c0.2,0.7-0.3,1.5-0.2,2.3
		c0.3,2.4,1.3,5.1,2.1,7.4c-0.2,0-0.3,0-0.5,0c-1.1-0.1-2.4-1-3-1.8c-0.1,0-0.2,0-0.3-0.1c-3.4-2-5.9-10.9-7-14.7
		c1,0.2,2.4,0.5,3.4,0.3C57,99.6,57.4,99.2,58,98.3z"/>
	<path class="st0" d="M46.1,86.2c0.8,0.7,0.7,2.8,1.2,3.9c1,2.1,3,4.1,3.6,6.3c0.3,1-0.4,3.5-0.1,5.1c0.5,2.8,2.4,5.2,2.6,8.2
		c0,0.4,0.1,0.7-0.2,1c-0.5-0.2-0.6-0.3-0.9-0.7c-0.2,0-0.3-0.1-0.4-0.2c-4-2.9-7.6-11.2-8.3-16C43.2,90.5,44.1,88.9,46.1,86.2z"/>
	<path class="st0" d="M95.7,69.6c0.6,0.2,5.9,3.5,6.6,4c0.4,2.3,0.9,4.7,1,7c0.1,1.8-0.4,9-1.5,10.2c-0.4-0.4-0.7-1.2-1.1-1.7
		c-1-1.4-2.2-2.7-3-4.2c-0.9-1.5-1.4-3.2-2.4-4.5C95,80,94.4,79.6,94,79.3C95.1,76,95.5,73,95.7,69.6z"/>
	<path class="st0" d="M100.9,78.7c0.3,0.1,0.4,0.2,0.7,0.4c0.3,0.9,0.2,1.8,0.2,2.8h-0.4l-0.3-0.3C100.8,80.7,100.9,79.6,100.9,78.7
		z"/>
	<path class="st0" d="M98.1,77.6c0.2,0.1,0.5,0.1,0.6,0.3c0.5,0.7,0.2,3.2,0.1,4.1c-0.3-0.1-0.4-0.3-0.5-0.5
		C98,80.3,97.9,78.9,98.1,77.6z"/>
	<path class="st0" d="M99.1,83.1c0.7,0.1,1.8,0.5,2.3,1c0.3,0.4,0.2,0.6,0.1,1.1c-0.3,0-0.6,0.1-0.9,0.1c-0.4,0-0.9-0.3-1.1-0.6
		C99.1,84.1,99.1,83.6,99.1,83.1z"/>
	<path class="st0" d="M71.1,106.3c0.8,0.4,1.9,2.8,2.9,3.5c0.5,0.4,1.1,0.7,1.7,0.7c1.1-0.1,2.4-0.9,3.1-1.7c-0.4,1.8-1,3.6-1.6,5.3
		c-1.1,3-2.6,7.1-5.8,8.6l-0.3,0.3c-0.5,0-0.9-0.3-1.3-0.6c-3.3-2.9-5.9-8.5-6.1-12.8c0,0,0.1,0,0.1,0.1h0.1c0.5,0.3,1,0.5,1.6,0.6
		c1,0.2,2.2,0.2,3.1-0.3C69.3,109.7,70.6,107.1,71.1,106.3z"/>
	<path class="st0" d="M70.4,114.6c0.3,0.1,0.6,0.2,0.9,0.3c0.2,0.4,0.2,0.5,0.1,0.9L71,116l-0.4-0.2
		C70.3,115.4,70.3,115.1,70.4,114.6z"/>
	<path class="st0" d="M46.6,69.4c0.3,0,0.3,0,0.5,0.2c0.3,2.5,1.3,6.7,1.1,9.1c-0.2,1.9-4,6.3-5.2,8c-0.9,1.4-1.7,2.9-2.7,4.3H40
		c-0.5-0.7-0.8-1.4-1.1-2.2c-1.2-4.2-2.1-9.8,0.2-13.8C40.5,72.5,43.7,70.2,46.6,69.4z"/>
	<path class="st0" d="M44.2,77.4c0.4,0,0.7,0,1.1,0.1c0.3,0.4,0.2,0.6,0.2,1.1l-0.8-0.2C44.3,78,44.3,77.9,44.2,77.4z"/>
	<path class="st0" d="M41.1,77.7c0.3,0.4,0.4,0.8,0.4,1.3c0.1,0.8,0,1.3-0.6,2c-0.3-0.2-0.3-0.7-0.4-1
		C40.5,79.2,40.6,78.3,41.1,77.7z"/>
	<path class="st0" d="M84.8,78.2c0.9,0.2,4.1,4.6,5,5.5c1.1-0.7,2-1.7,3-2.5c0.2,0.4,0.4,0.8,0.5,1.2c1.1,3.1-2.8,11-4.3,13.9
		c-0.1,0.2-0.2,0.3-0.3,0.5c-0.3,0.4-0.6,0.7-1.2,0.8c-2.2-0.6-6.8-8.1-8.3-10.4C80.7,84.3,82.8,80.7,84.8,78.2z"/>
	<path class="st0" d="M88.9,89.4c0.2,0.1,0.3,0.2,0.4,0.4c0.1,0.6-0.4,1.2-0.6,1.7c-0.4-0.3-0.4-0.3-0.6-0.8
		C88,90.2,88.5,89.8,88.9,89.4z"/>
	<path class="st0" d="M84.7,86.6l0.5,0.1l0.1,0.3c-0.2,0.7-1.3,1.4-1.7,2.1c-0.2-0.1-0.3-0.2-0.5-0.3c0,0,0,0,0-0.1
		C83.1,88.1,84.3,87.1,84.7,86.6z"/>
	<path class="st0" d="M57.3,78.2c0.2,0.1,0.4,0.2,0.6,0.3c0.9,0.7,4.3,6.7,4.5,7.8c0.2,1.8-6,10.2-7.3,11.9
		c-0.5-0.9-1.1-1.6-1.8-2.4c-0.8-0.8-1.4-1.8-2-2.7c-1.2-2.2-3.7-8-3-10.4c0.2-0.6,0.5-1,1.1-1.3c1.6,0,1.8,1.6,3.1,2.1
		C53.6,83.3,56,79.3,57.3,78.2z"/>
	<path class="st0" d="M55.6,82.6c0.2,0.1,0.5,0.2,0.7,0.4c0.2,0.8-0.2,1.4-0.5,2.2c-0.1,0-0.3,0-0.4-0.1
		C55.3,84.3,55.5,83.4,55.6,82.6z"/>
	<path class="st0" d="M55.7,86.1c0.5,0.1,0.8,0.2,1.1,0.6c0.2,0.5,0,0.9-0.2,1.4c-0.5-0.1-0.7-0.4-1-0.7
		C55.5,86.8,55.5,86.6,55.7,86.1z"/>
	<path class="st0" d="M92.1,58.7c-0.8-0.8-5.7-6.2-6.1-6.9c0.1-0.4,0.1-0.5,0.5-0.7c1.2-0.7,4.6,0.4,6,0.8c3.8,1.1,7.4,2,9.4,5.6
		c1.1,2,2.4,4.8,2.9,7c0.6,2.8,0.8,5.7,1.5,8.6c-3.6-2.1-7.1-4.2-10.5-6.5c-0.9-2.2-2.4-4.3-3.2-6.5C92.6,59.6,92.3,59,92.1,58.7z"
		/>
	<path class="st0" d="M93.5,58.6c0.5-0.2,0.6-0.3,1.1-0.2c0.2,0.2,0.2,0.3,0.2,0.6c0,0.2-0.2,0.4-0.3,0.6
		C94,59.2,93.8,59.1,93.5,58.6z"/>
	<path class="st0" d="M100.8,65.3c0.3,0.1,0.6,0.2,1,0.4c0.4,0.4,0.4,0.7,0.5,1.2c-0.3,0-0.5-0.1-0.8-0.2
		C101.1,66.3,101,65.9,100.8,65.3z"/>
	<path class="st0" d="M102.2,62.8c0.2,0.1,0.4,0.2,0.6,0.4c0.4,0.4,0.4,1,0.3,1.5c-0.3-0.1-0.6-0.3-0.8-0.5
		C102,63.6,102.1,63.4,102.2,62.8z"/>
	<path class="st0" d="M93.1,54.2c0.4,0.1,0.6,0.2,0.9,0.5c0.2,0.5,0,0.9-0.2,1.3c-0.2,0-0.3-0.1-0.5-0.1
		C93,55.5,93.1,54.8,93.1,54.2z"/>
	<path class="st0" d="M92.1,58.7c0.5,0,0.9-0.1,1.4-0.1c0.3,0.5,0.4,0.7,1,1c-0.5,0-1.2-0.1-1.7,0.3c-0.1,0.1-0.1,0.1-0.2,0.2
		C92.6,59.6,92.3,59,92.1,58.7z"/>
	<path class="st0" d="M100,61.9c0.4,0.2,0.5,0.2,0.7,0.6c-0.1,0.6-0.9,1.2-1.3,1.6C99,64,99,64,98.7,63.8
		C98.8,63.3,99.7,62.4,100,61.9z"/>
	<path class="st0" d="M96,59.9l0.7,0.1c0.7,0.6,1.9,1.2,2.1,2c-0.1,0-0.3,0-0.4,0c-0.6,0-1.8-0.8-2.2-1.2C95.9,60.6,96,60.3,96,59.9
		z"/>
	<path class="st0" d="M56.9,51.1c0.2,0,0.2,0.1,0.3,0.2c-0.6,1.7-3.2,3.2-4.4,4.5C50,58.9,48,63.2,47,67.2c-0.9,0.2-1.8,0.3-2.7,0.7
		c-3,1.3-4.9,4.2-8,5.2c-0.3-0.2-0.6-0.5-0.6-0.8c0-1,0.4-2.3,0.6-3.3c0.8-4,1.8-9.7,4.8-12.8C44.5,52.8,52.2,51.3,56.9,51.1z"/>
	<path class="st0" d="M43.2,59.9l0.6,0.1c0.4,0.3,0.3,0.5,0.4,0.9c-0.4,0-0.5,0.1-0.9-0.2L43.2,59.9z"/>
	<path class="st0" d="M83.9,53.9c0.7,0.1,1.3,0.6,1.8,1.1c4,4.2,7.5,9.4,7.3,15.4c-0.1,2.5-0.9,8.2-2.8,10l-0.4-0.1l-0.3-0.4
		c-0.9-1-1.7-2.2-2.4-3.3c-2.7-3.7-5-7.7-7.9-11.2C81.5,61.5,81.7,57.5,83.9,53.9z"/>
	<path class="st0" d="M86.7,70.4l0.7,0.4c-0.4,0.5-0.5,0.7-1.1,1L86,71.5C86.1,71,86.3,70.8,86.7,70.4z"/>
	<path class="st0" d="M85.7,62.6c0.1,0.1,0.2,0.1,0.3,0.2c0.2,0.2,1.9,3.2,2,3.5c0,0.2,0,0.5,0,0.7c-0.2-0.1-0.4-0.2-0.6-0.4
		C86.6,65.4,85.5,63.9,85.7,62.6z"/>
	<path class="st0" d="M86.7,70.4c0.9-1.1,1.5-2,2.9-2.5l0.3,0.1c0,0.4-0.3,0.8-0.5,1.1c-0.5,0.6-1.3,1.1-1.9,1.6L86.7,70.4z"/>
	<path class="st0" d="M54.5,77.9c-0.3,0.6-0.5,1.2-0.9,1.7c-0.3,0.3-0.6,0.4-1.1,0.5c-0.5-0.2-0.8-0.4-1.1-0.9
		c-1.1-1.6-2.9-8.1-2.5-10.1c1.2-5.6,4.7-11.8,9.6-15c1.7,3.6,2.4,7.8,4.7,11.1c-1.3,2.6-3.8,5.8-5.5,8.2c-0.5,0.7-0.9,1.6-1.4,2.3
		C55.7,76.4,55.1,77.1,54.5,77.9z"/>
	<path class="st0" d="M56.1,61.4c0.2,0.2,0.3,0.5,0.4,0.8c-0.2,0.5-0.3,0.5-0.7,0.7c-0.3-0.2-0.4-0.4-0.6-0.7
		C55.3,61.7,55.6,61.6,56.1,61.4z"/>
	<path class="st0" d="M54.5,66.3l0.6,0.3c0.3,0.6,0.2,1,0.1,1.6c-0.2-0.2-0.5-0.4-0.7-0.6C54.3,67.2,54.4,66.8,54.5,66.3z"/>
	<path class="st0" d="M52.2,68.1c0.4,0,0.7,0,1.1,0.2c0.2,0.5,0.1,0.6,0,1.1c-0.6-0.2-1-0.3-1.3-0.7L52.2,68.1z"/>
	<path class="st0" d="M58.5,64.3c0.4,0,0.7,0.1,1.1,0.2c0.2,0.4,0.1,0.6,0.1,1c-0.4,0-0.7,0-1-0.1C58.4,64.9,58.4,64.7,58.5,64.3z"
		/>
	<path class="st0" d="M55.7,64c0.3,0,0.6,0.1,0.8,0.2c0.4,0.4,0.4,0.6,0.6,1.2c-0.5,0-0.8-0.1-1.3-0.3C55.6,64.6,55.6,64.5,55.7,64z
		"/>
	<path class="st0" d="M58.1,59.8c0.4,0.3,0.5,0.5,0.7,0.9c0.2,0.6,0,1.1-0.3,1.6c-0.3,0-0.4-0.1-0.7-0.3
		C57.6,61.3,57.9,60.4,58.1,59.8z"/>
	<path class="st0" d="M52.3,64.9c0.4,0.1,0.7,0.2,1.1,0.4c0.3,0.4,0.3,0.6,0.3,1c-0.5,0.1-1.3,0.2-1.7-0.1
		C51.8,65.8,52.1,65.4,52.3,64.9z"/>
	<path class="st0" d="M54.5,77.9C54.5,77.8,54.4,77.8,54.5,77.9c-0.6-0.7-0.5-1.5-0.4-2.3c0.1-0.5,0.1-1,0.5-1.3
		c0.7,0.2,1,1,1.7,1.4h0.1C55.7,76.4,55.1,77.1,54.5,77.9z"/>
	<path class="st0" d="M59.9,96.1c0.4-1.9,2.3-5.4,4-6.5c0.4-0.2,0.7-0.3,1.1-0.3c1.9,1.2,3.5,8.2,6.5,7.7c1.1-0.2,1.9-1.3,2.4-2.1
		c0.9-1.3,2.5-5.2,3.7-5.8c0.5,0.1,0.6,0.1,0.9,0.5c0.2,0.2,2.9,4.9,3.1,5.2c0.2,0.6,0.4,1.2,0.3,1.8c-0.4,2.5-3.3,9.7-5.3,11.1
		c-0.2,0.2-0.5,0.3-0.7,0.2c-0.6-0.1-1.1-0.7-1.4-1.1c-1.1-1.5-1.6-3.4-3.4-4.3c-0.7,0.3-1.1,1.3-1.6,1.4c-0.1,0.4-0.4,1.3-0.8,1.5
		c0,0,0,0-0.1,0v0.1c-0.2,0.7-0.7,1.7-1.3,2.1c-0.5,0.1-0.7,0.2-1.1-0.1c-1.6-0.7-4.9-7.5-5.6-9.4C60.4,97.6,60.3,96.9,59.9,96.1z"
		/>
	<path class="st0" d="M69.6,99c0.2,0.1,0.4,0.2,0.5,0.2c0.1,0.6,0,0.9-0.2,1.4c-0.2-0.1-0.4-0.3-0.6-0.5
		C69.3,99.7,69.4,99.5,69.6,99z"/>
	<path class="st0" d="M77.7,93.3c0.3,0.1,0.5,0.3,0.6,0.5c0.1,0.5-0.1,0.8-0.3,1.3c-0.3-0.1-0.5-0.2-0.7-0.4
		C77.3,94.1,77.5,93.8,77.7,93.3z"/>
	<path class="st0" d="M68.1,97.1l0.3,0.1l0.1,0.5c-0.2,0.6-0.6,1-1,1.4l-0.4-0.4C67.1,98.1,67.7,97.5,68.1,97.1z"/>
	<path class="st0" d="M75.2,95.6c0.1,0.1,0.2,0.1,0.3,0.2c0.5,0.5,1,1.7,1,2.4c-0.1,0-0.2,0-0.3-0.1c-0.4-0.1-0.7-0.4-0.9-0.8
		C74.9,96.9,75,96.2,75.2,95.6z"/>
	<path class="st0" d="M68.2,103.3c0.4,0.4,0.5,0.6,1,0.8l0.3-0.1c-0.1,0.4-0.4,1.3-0.8,1.5c0,0,0,0-0.1,0s-0.2,0-0.3-0.1
		c-0.3-0.2-0.4-0.4-0.4-0.7C67.8,104.2,67.9,103.8,68.2,103.3z"/>
	<path class="st0" d="M73.9,100c0.4,0.1,0.6,0.2,0.9,0.5c0,0.3-0.1,0.6-0.1,1c0.3,0.4,0.3,0.4,0.8,0.6s0.5,0.6,0.7,1
		c-0.1,0-0.1,0-0.1,0c-0.5,0-1.2-0.7-1.6-1.1C73.9,101.4,73.8,100.8,73.9,100z"/>
	<path class="st0" d="M59.9,96.1c0.6-0.2,1.1-0.3,1.7-0.3L62,96c0.1,0.5,0,0.8-0.3,1.2c-0.3,0.4-0.7,0.7-1.1,1
		C60.4,97.6,60.3,96.9,59.9,96.1z"/>
	<path class="st0" d="M68.9,102.6c-0.7-0.3-1.2-0.5-1.6-1.1c-0.2-0.4-0.4-0.8-0.3-1.2l0.3-0.2c0.8,0.1,1.6,1.1,2.2,1.6
		c0.1,0.3,0.4,0.6,0.7,0.8c0.2,0.1,0.6,0.2,0.8,0.1c-0.7,0.3-1.1,1.3-1.6,1.4l-0.3,0.1c-0.5-0.1-0.7-0.4-1-0.8
		c0.2,0,0.3-0.1,0.5-0.2C68.9,103.1,68.9,102.8,68.9,102.6z"/>
	<path class="st0" d="M70.2,25.2L70.2,25.2c1.1-0.1,2.1,0,2.9,0.7c0.8,1.3,0.4,11.6,0.3,13.8c0.9-0.1,1.8-0.1,2.7,0
		c5.8,0.4,11.1,3,15.9,6c1.5,0.9,3,1.8,4.1,3.2c0.6,0.7,1.4,1.6,1.3,2.4c-1,0.3-3.3-0.8-4.4-1c-2.9-0.5-6-1.1-9-1
		c-0.2-0.5-0.5-1.1-0.9-1.5c-3.2-3.2-6.6-3.9-11.1-4c-2.4,0-5.3-0.1-7.6,0.6c-2.5,0.7-4.7,2.4-5.8,4.6c-1.8-0.2-3.3-0.2-5.1,0.1
		c-2.8,0.5-5.2,1.7-7.8,2.3c-0.4,0.1-0.7,0.1-1.1,0L44.5,51c0.1-0.8,1.1-1.7,1.7-2.2c1.4-1.4,3-2.4,4.6-3.6
		c6.3-4.4,10.4-5.6,18.1-5.7c0.3-4.4-0.5-9.5,0.1-13.7C69.3,25.4,69.7,25.4,70.2,25.2z"/>
	<path class="st0" d="M64.4,41.7c0.3,0,0.5,0.1,0.8,0.3v0.3c-0.5,0.4-0.9,0.5-1.5,0.7c-0.3,0-0.5-0.1-0.7-0.3l0.1-0.3
		C63.3,42,63.8,41.9,64.4,41.7z"/>
	<path class="st0" d="M58.6,42.9c0.5,0.2,1,0.1,1.5,0.3s0.7,0.4,1,0.9l-0.2,0.3l-0.4,0.1l-0.3-0.2l-0.6-0.8c-0.6-0.1-1,0.6-1.6,0.6
		c-0.1,0-0.2-0.2-0.3-0.2C57.8,43.4,58.2,43.2,58.6,42.9z"/>
	<path class="st0" d="M58.7,75.8c1.1-1.7,4.2-6.7,5.6-7.8c0.4-0.1,0.6,0,1,0.2c1.7,1.3,4.3,7.3,6.4,7.1c0.3,0,0.7-0.3,0.8-0.5
		c1.5-1.7,3.2-6.4,5.5-7c1.4,1,4.9,6.3,5.4,8c0.1,0.4-0.2,0.9-0.4,1.3c-1.3,2.1-2.9,4.1-4.3,6.2c-1.4,2.2-5.2,9.1-7.1,10.2
		c-0.7,0-1.1-0.1-1.6-0.6c-1.2-1.1-1.9-2.6-2.8-3.9c-1.9-2.8-3.9-5.3-5.4-8.4c-0.4-0.8-1-1.5-1.5-2.2C59.7,77.6,59.1,76.8,58.7,75.8
		z"/>
	<path class="st0" d="M75.4,73.1l0.4,0.3c0,0.6-0.3,0.8-0.7,1.2c-0.3-0.1-0.4-0.2-0.6-0.4C74.7,73.6,74.9,73.4,75.4,73.1z"/>
	<path class="st0" d="M66.1,82l0.4,0.3c0.1,0.6-0.1,0.9-0.4,1.5c-0.2-0.1-0.4-0.3-0.6-0.5C65.5,82.6,65.7,82.4,66.1,82z"/>
	<path class="st0" d="M68.7,81.4l0.8,0.2c0.4,0.4,0.4,0.6,0.5,1.1c-0.3,0-0.6-0.1-1-0.1C68.7,82.1,68.7,81.9,68.7,81.4z"/>
	<path class="st0" d="M64.9,78.8c0.4,0,0.7,0.1,1.1,0.2c0.3,0.1,0.3,0.1,0.4,0.3l-0.2,0.3c-0.4,0.1-0.8,0.1-1.3,0.1
		C64.7,79.3,64.8,79.2,64.9,78.8z"/>
	<path class="st0" d="M71.8,88.9c0.4,0,0.7,0.1,1.1,0.3c0.1,0.5-0.2,0.6-0.5,1c-0.1,0.1-0.3,0.1-0.4,0.1
		C71.7,89.8,71.8,89.4,71.8,88.9z"/>
	<path class="st0" d="M77.2,77.9c0.3,0,0.7,0.1,1,0.2c0.2,0.4,0,0.7-0.2,1.1c-0.4-0.1-0.7-0.2-1-0.3C76.8,78.4,77,78.3,77.2,77.9z"
		/>
	<path class="st0" d="M71.1,84.2c0.5,0,0.9,0,1.4,0.1c0.3,0.5,0.2,0.6,0.1,1.1c-0.3,0-0.7-0.1-0.9-0.2
		C71.2,84.9,71.2,84.6,71.1,84.2z"/>
	<path class="st0" d="M74.6,75.7c0.5,0.1,0.7,0.1,1,0.5c0.1,0.5,0,0.9-0.1,1.4c-0.4-0.2-0.7-0.3-1-0.6
		C74.3,76.4,74.4,76.2,74.6,75.7z"/>
	<path class="st0" d="M74,85.7c0.3,0.3,0.4,1,0.5,1.4c0.1,0.5,0.1,0.8-0.2,1.2c-0.4-0.2-0.6-0.4-0.9-0.7
		C73.3,86.9,73.7,86.3,74,85.7z"/>
	<path class="st0" d="M78.2,71.2l0.5,0.3c0.4,1,1.4,1.9,1.6,3c-0.1,0-0.1,0-0.2,0c-0.3,0-0.5-0.1-0.7-0.3
		C78.8,73.4,78.2,72.1,78.2,71.2z"/>
	<path class="st0" d="M72.2,80.3l0.5,0.1c0.6,0.4,1.2,1.7,1.3,2.3c-0.3,0-0.8,0.1-1.1-0.1C72.4,82.1,72.3,81,72.2,80.3z"/>
	<path class="st0" d="M73.8,79L73.8,79c1.9,0,2.1,1.6,3.1,2.6l0,0v0.6l-0.7,0.1c-0.4-0.3-0.4-1-0.7-1.4C75.3,80.1,74.1,80,73.8,79z"
		/>
	<path class="st0" d="M76.6,74C76.7,74,76.7,74,76.6,74c0.7,0.1,1.7,1,2,1.5c0.4,0.6,0.5,1,0.4,1.7c-0.4-0.1-0.7-0.4-1-0.6
		C77.4,75.8,76.6,75.1,76.6,74z"/>
	<path class="st0" d="M69,77.7c0.1,0,0.2,0,0.3,0.1c0.5,0.1,0.5,0.2,0.7,0.6c-0.1,0.5-1.9,1.5-2.6,2.8c-0.5-0.2-0.6-0.2-0.8-0.7
		C66.8,79.6,68.5,79.3,69,77.7z"/>
	<path class="st0" d="M60.3,78.5c0.6-0.2,1.8-0.1,2.3-0.5c0.7-0.6,1.2-2.2,2-2.4c0.1,0.8-0.4,1.4-0.8,2c-0.8,1-1.6,2-2,3.2
		C61.4,79.9,60.8,79.2,60.3,78.5z"/>
	<path class="st0" d="M69.4,45.9c2.6-0.1,5.1-0.3,7.6,0.5c2.3,0.8,3.7,2,4.8,4.1c-0.2,4-3.4,11.5-5.5,14.8c-1.3,2-2.8,3.7-4.1,5.7
		c-0.3,0.4-0.3,0.5-0.9,0.6c-0.4-0.1-0.7-0.3-0.9-0.5c-1.2-1.1-2-2.6-2.9-4c-3-4.6-6.5-9.8-6.8-15.3c-0.1-1.4,0.2-2.8,1.2-3.8
		C63.4,46.3,67.1,46,69.4,45.9z"/>
	<path class="st0" d="M68.9,50.9l0.7,0.4c0.3,0.5,0.2,0.7,0.2,1.3c-0.3-0.1-0.5-0.2-0.8-0.3C68.7,51.7,68.8,51.4,68.9,50.9z"/>
	<path class="st0" d="M69.4,67.4c0.5,0,0.7,0.1,1.1,0.4c0.2,0.5,0.1,0.7,0.1,1.2c-0.3-0.1-0.7-0.3-0.9-0.5
		C69.3,68.1,69.3,67.8,69.4,67.4z"/>
	<path class="st0" d="M74.7,60.5c0.4,0,0.8,0.1,1.2,0.2c0.3,0.4,0.2,0.5,0.1,1c-0.4,0-0.8-0.1-1.2-0.3C74.6,61.1,74.6,61,74.7,60.5z
		"/>
	<path class="st0" d="M72,53.5c0.4,0,0.7,0.1,1.1,0.2c0.3,0.5,0.1,0.8,0,1.3c-0.2,0-0.4,0-0.6,0C72.1,54.6,72.1,54.1,72,53.5z"/>
	<path class="st0" d="M72.9,59c0.4,0.1,0.5,0.2,0.8,0.5c0.2,0.5,0.1,0.9,0,1.4c-0.3-0.1-0.5-0.2-0.8-0.4C72.6,60,72.8,59.5,72.9,59z
		"/>
	<path class="st0" d="M78.1,50.9l0.4,0.3c0.3,0.8,0.2,1.4-0.1,2.2c-0.3-0.2-0.6-0.5-0.7-0.9C77.5,51.9,77.8,51.4,78.1,50.9z"/>
	<path class="st0" d="M68.6,48.9c0.8,0,1.8-0.2,2.5,0.3l0.1,0.6c-0.5,0.1-0.9,0.3-1.4,0.1C69.2,49.7,68.9,49.3,68.6,48.9z"/>
	<path class="st0" d="M75.2,48c0.4,0,0.6,0.3,0.9,0.5c0.6,0.5,1.1,1.1,1.2,1.8c-0.3,0.1-0.5,0.1-0.8,0.1
		C75.9,49.8,75.6,48.8,75.2,48z"/>
	<path class="st0" d="M65.6,55.5c0.7,0,1.4,0.1,1.9,0.4c0.3,0.4,0.3,0.5,0.2,1c-0.6,0.1-1.1,0.2-1.7-0.1
		C65.8,56.5,65.7,56.1,65.6,55.5z"/>
	<path class="st0" d="M74.8,55.1c0.4,0,0.6,0,0.9,0.3c0.2,1,0.4,2,0.3,3c-0.1,0.5-0.3,0.6-0.7,0.9l-0.4-0.4
		C74.8,58.1,74.3,55.7,74.8,55.1z"/>
</g>
</svg>
